<?xml version="1.0" encoding="UTF-8"?>
<svg viewBox="0 0 504 504" xmlns="http://www.w3.org/2000/svg">
 <g transform="translate(-458.89 -202.89)">
  <path d="m559.76 645.59c-2.2201-13.347-1.7503-39.935 0.94509-53.478 8.2312-41.358 32.368-77.376 66.683-99.505 10.97-7.0743 21.376-12.027 36.5-17.372 0.93192-0.32937-1.5297-2.1028-6.5-4.6826-11.958-6.2068-22.727-17.299-28.866-29.734-6.0097-12.172-7.9983-21.403-7.3195-33.978 0.97438-18.053 7.6651-32.938 20.686-46.021 11.642-11.698 30.027-19.979 44.356-19.979h5.0364l-5.4464-2.6971c-7.0942-3.5132-15.861-12.339-19.335-19.466-7.9827-16.374-4.9121-35.666 7.6811-48.26 19.309-19.309 54.106-19.309 73.415 0 12.593 12.593 15.664 31.885 7.6811 48.26-3.4744 7.127-12.241 15.953-19.335 19.466l-5.4464 2.6971h5.0364c14.33 0 32.714 8.2807 44.356 19.979 13.021 13.083 19.711 27.969 20.686 46.021 0.67873 12.575-1.3098 21.806-7.3195 33.978-6.1396 12.435-16.908 23.527-28.866 29.734-4.9703 2.5799-7.4319 4.3533-6.5 4.6826 15.124 5.3454 25.53 10.298 36.5 17.372 34.315 22.129 58.452 58.146 66.683 99.505 2.6954 13.543 3.1652 40.13 0.94509 53.478l-1.3722 8.25h-299.51l-1.3722-8.25z"/>
 </g>
</svg>
