<?xml version="1.0" encoding="UTF-8"?>
<svg viewBox="0 0 504 504" xmlns="http://www.w3.org/2000/svg">
 <path d="m57.352 455.07c-9.546-9.4875-17.607-18.243-17.912-19.457-1.0662-4.232 1.2057-7.6998 9.3586-14.284 15.861-12.811 33.964-21.923 53.781-27.071 17.316-4.4986 25.909-5.1926 55-4.4423 34.274 0.88409 48.694-1.0048 59.9-7.8463l3.9005-2.3813-7.9005-1.7189c-13.388-2.9128-31.4-9.3524-44.443-15.89-17.975-9.0088-17.349-6.1891-8.8633-39.921 3.7688-14.981 6.8546-27.689 6.8576-28.239s-2.4891-2.7872-5.5377-4.9716c-14.79-10.597-26.221-27.837-31.624-47.692-1.826-6.7107-2.2522-10.775-2.1853-20.837 0.09958-14.982 2.2094-23.913 8.8962-37.66 10.542-21.672 24.697-35.687 63.999-63.366 13.421-9.4516 24.476-17.574 32.248-23.692 1.3393-1.0544 0.86291-1.8611-3.5429-6-7.2893-6.8477-10.69-14.573-10.698-24.303-0.01173-13.445 7.4111-24.618 20.493-30.847 7.786-3.7073 18.214-3.7073 26 0 8.1508 3.881 13.45 9.0046 17.208 16.639 6.5338 13.272 3.6819 28.088-7.413 38.511-4.4058 4.1389-4.8821 4.9456-3.5429 6 7.7716 6.1182 18.827 14.241 32.248 23.692 39.302 27.679 53.457 41.694 63.999 63.366 6.6868 13.747 8.7967 22.678 8.8963 37.66 0.06687 10.062-0.35935 14.126-2.1853 20.837-5.4025 19.855-16.834 37.095-31.624 47.692-3.0486 2.1844-5.5406 4.4216-5.5377 4.9716s3.0888 13.257 6.8576 28.239c8.4857 33.732 9.1117 30.912-8.8633 39.921-13.043 6.5371-31.055 12.977-44.443 15.89l-7.9004 1.7189 3.9004 2.3813c11.206 6.8415 25.626 8.7304 59.9 7.8463 29.091-0.75036 37.684-0.05632 55 4.4423 19.95 5.1828 37.636 14.119 53.986 27.277 6.785 5.4603 8.5458 7.4381 9.0594 10.176 0.35069 1.8693 0.18027 4.2336-0.37869 5.254s-8.6176 9.3928-17.908 18.605c-11.794 11.695-17.571 16.75-19.141 16.75-2.8774 0-4.6679-0.9844-12.346-6.7873-7.8683-5.947-20.054-12.317-29.786-15.572-11.03-3.6881-25.419-5.4425-53.986-6.582-35.807-1.4284-51.487-4.5691-69.703-13.962l-9.2969-4.7937-9.2969 4.7937c-18.216 9.3927-33.896 12.533-69.703 13.962-28.567 1.1395-42.956 2.8939-53.986 6.582-9.7324 3.2542-21.918 9.6245-29.786 15.572-7.6785 5.8036-9.4681 6.7873-12.347 6.7873-1.5768 0-7.4488-5.166-19.607-17.25z"/>
 <path d="m191.81 274.89c37.332-11.706 74.276-12.54 112.01-2.5269 6.1843 1.641 13.727 3.9126 16.762 5.0481l5.5179 2.0645 4.8055-3.5276c26.655-19.566 35.593-55.446 21.214-85.153-9.3947-19.409-23.862-33.079-66.647-62.972-7.0849-4.95-17.497-12.695-23.139-17.212l-10.257-8.2117-10.257 8.2117c-5.6415 4.5164-16.054 12.262-23.139 17.212-42.785 29.893-57.252 43.562-66.647 62.972-12.136 25.073-7.911 54.894 10.71 75.601 5.5096 6.1264 14.58 13.07 16.333 12.503 0.82499-0.26698 6.5554-2.0706 12.734-4.0081z" fill="#fff"/>
 <path d="m184.81 328.37c9.3939-3.8281 26.297-8.5716 38.268-10.739 13.208-2.3918 44.801-2.3908 58 0.0018 12.453 2.2573 26.385 6.146 37.329 10.419 4.856 1.8961 9.0313 3.2452 9.2784 2.9981s-1.476-8.2079-3.8291-17.691c-4.9514-19.953-3.4799-18.273-20.078-22.933-17.93-5.0346-29.988-6.566-51.701-6.566s-33.771 1.5314-51.701 6.566c-16.53 4.6416-15.196 3.1832-19.72 21.548-2.1477 8.7172-4.109 16.637-4.3585 17.599-0.60456 2.3326 0.06599 2.2377 8.5113-1.2038l-1e-5 -1e-5z" fill="#fff"/>
 <path d="m285.69 360.88c11.981-2.4894 26.667-7.1326 33.328-10.538l3.44-1.7584-4.7416-2.0974c-8.4134-3.7217-25.872-8.9256-36.138-10.772-13.966-2.5117-45.034-2.5117-59 0-10.266 1.8464-27.725 7.0503-36.138 10.772l-4.7416 2.0974 3.44 1.7584c9.8441 5.032 31.576 10.966 47.586 12.993 12.595 1.5948 39.469 0.34891 52.966-2.4555l-1e-5 1e-5z" fill="#fff"/>
 <path d="m84.228 447.68c7.9008-5.381 24.14-12.895 34.04-15.75 13.167-3.7974 26.769-5.4265 54.811-6.5648 14.025-0.56919 28.425-1.5025 32-2.0738 15.156-2.4222 28.82-7.6472 39.922-15.266 5.5671-3.8204 8.588-3.8204 14.155 0 11.102 7.6188 24.766 12.844 39.922 15.266 3.575 0.5713 17.975 1.5046 32 2.0738 28.042 1.1383 41.644 2.7674 54.811 6.5648 9.9381 2.8661 26.145 10.374 34.125 15.807l5.4358 3.7015 8.9221-8.9221 8.9221-8.9221-8.4744-5.6387c-13.419-8.9287-26.802-14.578-43.241-18.255-6.8496-1.5317-13.392-1.8044-45.5-1.8965-37.258-0.10691-37.564-0.1247-47.327-2.7561-5.4048-1.4567-12.324-3.7919-15.377-5.1894-6.4184-2.9384-16.483-9.9449-20.733-14.434-2.7849-2.9411-3.3321-3.1018-10.563-3.1018s-7.778 0.16067-10.563 3.1018c-4.2503 4.4886-14.315 11.495-20.733 14.434-3.0525 1.3975-9.9721 3.7327-15.377 5.1894-9.7634 2.6314-10.069 2.6492-47.327 2.7561-32.108 0.09209-38.65 0.3648-45.5 1.8965-16.304 3.6459-29.301 9.1076-43.142 18.13l-8.6634 5.6471 8.8817 8.923c4.8849 4.9076 8.9583 8.923 9.052 8.923s2.5781-1.6398 5.5208-3.6441z" fill="#fff"/>
 <path d="m260.16 79.05c10.64-7.1703 10.64-20.282 0-27.452-9.8128-6.6128-24.078 1.5195-24.078 13.726s14.266 20.339 24.078 13.726z" fill="#fff"/>
 <path d="m246.99 234.04c-3.246-2.4922-3.9133-5.5744-3.9133-18.075v-12.488l-13.589-0.32748c-13.476-0.32477-13.609-0.35074-16-3.1332-3.0808-3.5853-3.0808-7.8032 0-11.388 2.3897-2.781 2.5303-2.8086 15.924-3.1318l13.513-0.32607 0.32605-13.513c0.3232-13.394 0.35085-13.534 3.1318-15.924 3.5853-3.0809 7.8032-3.0808 11.388 0 2.781 2.3897 2.8086 2.5303 3.1318 15.924l0.32607 13.513 13.513 0.32607c13.394 0.32319 13.534 0.35085 15.924 3.1318 3.0808 3.5853 3.0808 7.8032 0 11.388-2.391 2.7825-2.5236 2.8085-16 3.1332l-13.589 0.32748v12.488c0 12.501-0.66732 15.583-3.9133 18.075-2.0458 1.5707-8.1275 1.5707-10.173 0h-1e-5z"/>
</svg>
