<?xml version="1.0" encoding="UTF-8"?>
<svg viewBox="0 0 504 504" xmlns="http://www.w3.org/2000/svg">
 <path d="m155.21 472.75c-8.0754-4.032-9.2765-27.809-2.4228-47.959 5.8574-17.221 12.616-26.321 38.455-51.773 23.278-22.93 29.479-30.478 36.723-44.7 8.645-16.974 12.054-30.401 12.962-51.05 0.32046-7.2875 0.34192-13.25 0.04767-13.25s-5.1992 2.851-10.9 6.3356-18.535 10.484-28.52 15.553c-37.899 19.242-43.849 24.891-60.759 57.689-3.1415 6.0931-7.7257 13.644-10.187 16.78-7.8866 10.048-20.564 17.641-29.454 17.641-3.7944 0-10.746-2.6117-14.429-5.4206-1.7172-1.3098-3.9342-4.1821-4.9266-6.383-1.6337-3.623-2.2438-4.0664-6.4465-4.6857-28.706-4.2302-49.063-29.204-46.807-57.42 1.4509-18.141 9.6136-36.277 30.142-66.969 14.049-21.005 19.759-31.192 23.676-42.24 2.0304-5.7271 2.2667-8.278 2.3049-24.881l0.04249-18.5 3.2392-6.8391c2.6987-5.698 5.5388-9.1186 17.022-20.5 7.5803-7.5135 15.087-15.596 16.681-17.961l2.899-4.2998-2.1946-27.7c-3.025-38.182-3.0328-38.083 3.1753-40.693 4.2288-1.7781 4.0243-1.8767 35.995 17.359 14.749 8.874 27.159 16.134 27.577 16.134s8.3195-8.0901 17.558-17.978c13.92-14.899 17.391-18.089 20.263-18.628 6.1064-1.1456 7.554 0.89881 19.983 28.219l11.393 25.043 6.2046-0.90855c8.9087-1.3045 30.599-0.15434 41.863 2.2199 20.454 4.3112 40.764 13.106 57.207 24.771 10.978 7.788 28.658 25.669 36.842 37.261 17.685 25.049 30.503 53.084 42.252 92.418 20.175 67.54 32.603 146.52 32.934 209.3 0.10412 19.768 0.05627 20.263-2.1712 22.5l-2.2777 2.287-156.72 0.24035c-123.65 0.18964-157.25-0.02305-159.22-1.0079v1e-5z"/>
 <path d="m155.79 67.859c-8.8467-5.3134-16.212-9.5367-16.367-9.3851s0.25647 7.4707 0.91408 16.265l1.1956 15.989 15.171-6.6039 15.171-6.6039-16.085-9.6608z" fill="#fff"/>
 <path d="m458.84 455.47c2.8874-2.8874 2.8867-3.0116-0.21959-42.452-5.8032-73.683-23.772-160.39-43.623-210.5-5.8135-14.675-16.895-35.652-24.564-46.5-16.462-23.286-40.93-42.355-65.814-51.292-14.929-5.3619-26.488-7.2154-44.419-7.1229-10.717 0.05528-19.116 0.62875-23.964 1.6363-4.1055 0.85315-7.9871 1.3506-8.6258 1.1055s-4.6703-8.1814-8.959-17.636-8.9156-19.636-10.282-22.625l-2.4842-5.4344-15.592 16.102-15.592 16.102-27.165 11.69-27.165 11.69-6.5502 8.7716c-3.6026 4.8244-11.07 12.942-16.594 18.039-14.83 13.685-14.511 12.941-14.597 33.974-0.06189 15.062-0.38278 18.545-2.3034 25-3.7863 12.726-12.22 28.621-26.53 50-15.697 23.451-23.863 39.043-26.195 50.012-1.982 9.3226-1.3984 20.968 1.3587 27.11 4.8675 10.844 16.831 19.448 28.567 20.544l6.4212 0.59962 6.6981-8.8828c3.684-4.8855 7.6784-9.4293 8.8766-10.097 4.8454-2.7014 10.06-0.9855 12.156 4.0001 1.764 4.1952 0.88626 6.2164-7.6087 17.522-3.8465 5.1192-6.8495 10.069-6.6732 11 0.58012 3.0628 6.7943 2.7062 11.436-0.65633 6.4267-4.6554 10.712-10.658 19.429-27.213 4.4707-8.4909 10.084-18.18 12.473-21.532 9.1734-12.868 23.006-22.887 51.81-37.526 28.339-14.402 53.402-30.385 60.799-38.771 8.7211-9.8882 12.418-21.421 11.553-36.043-0.64781-10.954 0.45954-14.228 5.3935-15.948 2.5044-0.87304 3.8295-0.77613 6.4608 0.47248 4.1818 1.9844 5.4746 5.4313 6.1661 16.441 1.0554 16.803-6.4717 36.645-18.571 48.955l-6.6457 6.7613 0.80527 6.376c1.199 9.4931-0.00401 31.088-2.3049 41.376-4.5348 20.276-13.069 39.586-24.238 54.843-3.3122 4.5244-15.664 17.732-27.735 29.657-21.532 21.271-27.758 28.802-32.654 39.497-3.1155 6.805-5.3333 17.263-5.3555 25.253l-0.01736 6.25h141.44c93.215 0 141.65 0.34096 142.06 1 1.2093 1.9568 6.5362 1.0547 9.1384-1.5475l-1e-5 -1e-5z" fill="#fff"/>
 <path d="m115.28 190.86c4.5242-8.5225 17.568-29.506 20.219-32.524 5.393-6.1423 13.751-8.7751 20.143-6.345 1.4108 0.53639 2.5651 1.5591 2.5651 2.2728 0 3.1146-8.11 14.861-15.025 21.762-5.7085 5.6969-9.5716 8.5214-16 11.698-4.661 2.3036-9.5257 4.4791-10.81 4.8344-2.1847 0.60438-2.2553 0.49448-1.0912-1.6984z"/>
 <path d="m53.403 313.38c0.38162-7.925 1.0135-11.14 3.0744-15.641 2.7279-5.9586 7.1771-9.7079 11.528-9.715 5.6277-0.00916 11.2 5.6124 11.2 11.299 0 4.3117-4.3134 8.9514-15.392 16.556l-10.892 7.4766 0.48034-9.9752z"/>
</svg>
