<?xml version="1.0" encoding="UTF-8"?>
<svg viewBox="0 0 504 504" xmlns="http://www.w3.org/2000/svg">
 <path d="m99.308 458.99c-6.1021-2.458-8.6465-14.336-8.6732-40.49-0.02208-21.653 1.4985-31.065 8.3385-51.612 12.978-38.986 41.4-72.773 76.584-91.04l10.058-5.2219-5.0579-4.1207c-10.789-8.79-20.393-23.949-24.746-39.062-1.8623-6.4645-2.2769-10.271-2.2269-20.443 0.05335-10.859 0.42617-13.616 2.8397-21 7.5399-23.068 20.745-38.576 41.576-48.826l9.5-4.6744-4.2273-6.3067c-8.4643-12.628-11.098-27.791-7.2833-41.93 4.2454-15.734 12.733-26.073 27.298-33.251 18.815-9.2736 38.611-9.2736 57.426 0 14.565 7.1787 23.052 17.518 27.298 33.251 3.8149 14.138 1.181 29.302-7.2833 41.93l-4.2273 6.3067 9.5 4.6744c20.831 10.25 34.036 25.757 41.576 48.826 2.4135 7.384 2.7863 10.141 2.8397 21 0.04997 10.173-0.36464 13.979-2.2269 20.443-4.3535 15.112-13.957 30.272-24.746 39.062l-5.0579 4.1207 10.058 5.2219c35.184 18.267 63.606 52.054 76.584 91.04 6.84 20.547 8.3606 29.959 8.3385 51.612-0.02717 26.65-2.5648 38.105-8.9823 40.545-3.2302 1.2281-302.02 1.175-305.07-0.05423v1e-5z"/>
 <path d="m394.73 439.25c0.42297-1.5125 0.73972-11.075 0.70389-21.25-0.0726-20.618-1.7574-31.251-7.5562-47.688-14.2-40.25-47.259-73.644-86.879-87.759-9.9597-3.5483-11.779-4.8587-12.565-9.049-0.97839-5.2153 1.256-7.7 11.267-12.529 31.243-15.071 42.623-53.871 24.812-84.593-4.8302-8.3315-16.117-18.591-25.647-23.314-7.9583-3.9435-12.1-4.9976-25.971-6.6102-5.1383-0.59737-8.5289-3.1444-9.538-7.165-1.0482-4.1766 1.5113-7.4582 8.6019-11.028 8.0467-4.0516 13.362-9.1852 16.838-16.263 2.3597-4.8043 2.7014-6.7017 2.7014-15 0-8.3641-0.33238-10.177-2.7798-15.161-3.4476-7.0204-8.99-12.123-17.597-16.201-6.3253-2.997-7.1859-3.1382-19.123-3.1382s-12.798 0.14122-19.123 3.1382c-8.6068 4.078-14.149 9.1809-17.597 16.201-2.4474 4.9837-2.7798 6.7964-2.7798 15.161 0 8.2983 0.34172 10.196 2.7014 15 3.4765 7.078 8.7916 12.212 16.838 16.263 7.0906 3.5702 9.6502 6.8519 8.6019 11.028-1.0091 4.0205-4.3997 6.5676-9.538 7.165-13.871 1.6126-18.012 2.6667-25.971 6.6102-9.5298 4.7222-20.816 14.982-25.647 23.314-7.2738 12.546-9.9791 27.842-7.5117 42.47 2.9464 17.468 15.719 34.113 32.324 42.123 10.011 4.8292 12.245 7.3139 11.267 12.529-0.78611 4.1904-2.6057 5.5008-12.565 9.049-39.62 14.115-72.679 47.509-86.879 87.759-5.7988 16.437-7.4836 27.07-7.5562 47.688-0.03583 10.175 0.28092 19.738 0.7039 21.25l0.76905 2.75h283.92l0.76905-2.75z" fill="#fff"/>
</svg>
